<svg width="40" height="36" viewBox="0 0 40 36" fill="none" xmlns="http://www.w3.org/2000/svg">
<path d="M35.1341 16.3271C35.0917 15.7385 34.5808 15.2966 33.9913 15.338C33.4025 15.3804 32.9597 15.892 33.0021 16.4808C33.0284 16.8445 33.0416 17.2176 33.0416 17.5895C33.0416 26.1099 26.1099 33.0416 17.5896 33.0416C9.06923 33.0416 2.1375 26.1098 2.1375 17.5895C2.1375 9.06915 9.06923 2.13742 17.5896 2.13742C20.9639 2.13742 24.1685 3.20524 26.8568 5.22532C27.3288 5.57985 27.9986 5.48477 28.3532 5.01298C28.7079 4.5411 28.6128 3.8711 28.141 3.51657C25.0793 1.21602 21.4307 5.80126e-10 17.5896 5.80126e-10C7.89071 -7.81245e-05 0 7.89063 0 17.5895C0 27.2883 7.89071 35.1789 17.5896 35.1789C27.2885 35.1789 35.1791 27.2884 35.1791 17.5895C35.1791 17.1665 35.1639 16.7418 35.1341 16.3271Z" fill="#6CC566"/>
<path d="M38.7809 2.41525C37.1553 0.789704 34.5101 0.789704 32.8845 2.41525L17.4853 17.8143L12.0264 12.3553C10.4007 10.7298 7.75558 10.7298 6.12996 12.3553C4.50433 13.981 4.50433 16.6261 6.12996 18.2518L15.5316 27.6534C16.0703 28.1921 16.7778 28.4614 17.4853 28.4614C18.1929 28.4614 18.9004 28.1921 19.439 27.6534L38.7809 8.31151C40.4064 6.68596 40.4064 4.04096 38.7809 2.41525ZM37.2695 6.80018L17.9275 26.1422C17.6838 26.386 17.2869 26.386 17.0432 26.1422L7.64152 16.7405C6.84925 15.9482 6.84925 14.6593 7.64152 13.867C8.03761 13.4707 8.55785 13.2728 9.07824 13.2728C9.59863 13.2728 10.1189 13.4708 10.515 13.867L16.1307 19.4828C16.4926 19.8446 16.9738 20.0438 17.4854 20.0438C17.9972 20.0438 18.4783 19.8445 18.8401 19.4827L34.396 3.92666C35.188 3.13439 36.4773 3.13439 37.2695 3.92666C38.0617 4.71893 38.0617 6.00791 37.2695 6.80018Z" fill="#6CC566"/>
</svg>
